<svg width="45" height="45" viewBox="0 0 45 45" fill="none" xmlns="http://www.w3.org/2000/svg">
<rect x="0.5" y="0.5" width="44" height="44" rx="22" stroke="white"/>
<path fill-rule="evenodd" clip-rule="evenodd" d="M26.4757 11L26.5335 11.5507C26.6785 12.9232 26.2056 14.4538 25.2706 15.6459C25.2564 15.6625 25.2399 15.6743 25.2269 15.6908C25.3826 15.6849 25.5382 15.6731 25.6998 15.6884C26.4049 15.7179 28.2586 15.9867 29.4708 17.7944L29.7998 18.2861L29.3069 18.6139C28.8824 18.8828 27.5794 19.8509 27.5971 21.6668C27.6171 23.9662 29.4708 24.8093 29.6819 24.8978L30.1877 25.11L30.0179 25.6336C29.8776 26.0864 29.4731 27.2455 28.6831 28.4247C27.9296 29.5473 26.9933 30.9458 25.4097 30.9752C24.6621 30.9941 24.1845 30.7689 23.7471 30.5767C23.3308 30.3927 22.9735 30.2347 22.3816 30.2347C21.7554 30.2347 21.3769 30.3986 20.9383 30.5896C20.5267 30.7689 20.0598 30.9717 19.4124 30.9988C19.3829 31 19.3535 31 19.3263 31C17.7922 31 16.7262 29.4282 16.0164 28.3822L15.9623 28.3017C14.1872 25.6256 13.1946 21.2684 14.8325 18.3663C15.7346 16.7662 17.376 15.7556 19.1164 15.7297C19.7945 15.7202 20.4182 15.9325 20.956 16.1447C21.0479 14.896 21.6422 13.731 22.2589 12.9787C23.1551 11.8797 24.6609 11.0755 25.9226 11.0236L26.4757 11ZM25.6137 16.864C24.846 16.7827 24.1102 17.0857 23.4558 17.3499C22.9617 17.5491 22.536 17.7201 22.141 17.7201C21.8038 17.7201 21.45 17.6058 21.0821 17.4619L21.0255 17.4572L21.0232 17.4395C20.9453 17.4076 20.8675 17.377 20.7873 17.3451C20.2708 17.1352 19.7036 16.8605 19.1365 16.9089C17.8123 16.9289 16.5564 17.7095 15.8595 18.9465C14.3502 21.6197 15.6131 25.6866 16.9927 27.7195C17.7262 28.8008 18.5044 29.8692 19.3652 29.8208C19.7921 29.8031 20.0893 29.6734 20.4678 29.5095C20.956 29.2961 21.5102 29.0555 22.3816 29.0555C23.2223 29.0555 23.7541 29.2902 24.2235 29.4977C24.6114 29.6699 24.9333 29.8149 25.3873 29.7961C26.287 29.7796 26.9155 28.9447 27.7032 27.7679C28.2197 26.9979 28.5498 26.2397 28.7373 25.7338C27.939 25.2551 26.4391 24.0417 26.4179 21.6774C26.4002 19.8014 27.4308 18.608 28.143 18.009C27.2539 17.0445 26.1078 16.8853 25.6137 16.864ZM25.3731 12.2983C24.576 12.5117 23.7199 13.0529 23.1728 13.7239L23.1716 13.7251C22.687 14.317 22.1717 15.2957 22.1186 16.3028C23.0006 16.1707 23.8402 15.5552 24.3437 14.9172C24.9522 14.1425 25.3165 13.2003 25.3731 12.2983Z" fill="white"/>
</svg>
