<svg width="18" height="18" viewBox="0 0 18 18" fill="none" xmlns="http://www.w3.org/2000/svg">
<path fill-rule="evenodd" clip-rule="evenodd" d="M8.74163 0.370773C13.3648 0.370773 17.1124 4.2129 17.1124 8.95328C17.1124 12.7444 14.7167 15.9605 11.3927 17.0964C10.9683 17.1809 10.8176 16.9129 10.8176 16.6844C10.8176 16.4015 10.8276 15.4774 10.8276 14.3289C10.8276 13.5286 10.5598 13.0064 10.2593 12.7402C12.1234 12.5275 14.0822 11.8017 14.0822 8.50531C14.0822 7.56778 13.7574 6.80273 13.22 6.20171C13.3071 5.98491 13.5942 5.11195 13.138 3.92999C13.138 3.92999 12.4365 3.70002 10.8385 4.80999C10.1697 4.61997 9.45315 4.52436 8.74163 4.52101C8.03012 4.52436 7.31442 4.61997 6.64643 4.80999C5.04677 3.70002 4.34363 3.92999 4.34363 3.92999C3.88909 5.11195 4.17621 5.98491 4.26243 6.20171C3.72754 6.80273 3.40024 7.56778 3.40024 8.50531C3.40024 11.7934 5.35482 12.5303 7.21397 12.7471C6.97456 12.9614 6.75776 13.3394 6.68242 13.8944C6.20529 14.1137 4.99319 14.4933 4.24652 13.1816C4.24652 13.1816 3.80371 12.357 2.96328 12.2967C2.96328 12.2967 2.14713 12.2858 2.90636 12.8182C2.90636 12.8182 3.45465 13.0819 3.83552 14.0738C3.83552 14.0738 4.32688 15.6057 6.65564 15.0867C6.65982 15.8041 6.66736 16.4802 6.66736 16.6844C6.66736 16.9113 6.51333 17.1767 6.09563 17.0972C2.76908 15.963 0.37085 12.7452 0.37085 8.95328C0.37085 4.2129 4.11929 0.370773 8.74163 0.370773Z" fill="black"/>
</svg>
