<svg width="45" height="45" viewBox="0 0 45 45" fill="none" xmlns="http://www.w3.org/2000/svg">
<rect x="0.558052" y="0.558052" width="43.8839" height="43.8839" rx="21.9419" stroke="white" stroke-width="1.1161"/>
<path fill-rule="evenodd" clip-rule="evenodd" d="M23 12C28.523 12 33 16.5899 33 22.2529C33 26.7819 30.138 30.624 26.167 31.981C25.66 32.082 25.48 31.7618 25.48 31.4888C25.48 31.1508 25.492 30.0468 25.492 28.6748C25.492 27.7188 25.172 27.0949 24.813 26.7769C27.04 26.5229 29.38 25.6558 29.38 21.7178C29.38 20.5978 28.992 19.6838 28.35 18.9658C28.454 18.7068 28.797 17.664 28.252 16.252C28.252 16.252 27.414 15.9772 25.505 17.3032C24.706 17.0762 23.85 16.962 23 16.958C22.15 16.962 21.295 17.0762 20.497 17.3032C18.586 15.9772 17.746 16.252 17.746 16.252C17.203 17.664 17.546 18.7068 17.649 18.9658C17.01 19.6838 16.619 20.5978 16.619 21.7178C16.619 25.6458 18.954 26.5262 21.175 26.7852C20.889 27.0412 20.63 27.4928 20.54 28.1558C19.97 28.4178 18.522 28.8712 17.63 27.3042C17.63 27.3042 17.101 26.3191 16.097 26.2471C16.097 26.2471 15.122 26.2341 16.029 26.8701C16.029 26.8701 16.684 27.1851 17.139 28.3701C17.139 28.3701 17.726 30.2001 20.508 29.5801C20.513 30.4371 20.522 31.2448 20.522 31.4888C20.522 31.7598 20.338 32.0769 19.839 31.9819C15.865 30.6269 13 26.7829 13 22.2529C13 16.5899 17.478 12 23 12Z" fill="white"/>
</svg>
