<svg width="45" height="45" viewBox="0 0 45 45" fill="none" xmlns="http://www.w3.org/2000/svg">
<rect x="0.5" y="0.5" width="44" height="44" rx="22" fill="white"/>
<rect x="0.5" y="0.5" width="44" height="44" rx="22" stroke="#555555"/>
<path fill-rule="evenodd" clip-rule="evenodd" d="M18 14C19.8638 14 21.4299 15.2748 21.874 17H30V19H21.874C21.4299 20.7252 19.8638 22 18 22C15.7909 22 14 20.2091 14 18C14 15.7909 15.7909 14 18 14ZM18 20C19.1046 20 20 19.1046 20 18C20 16.8954 19.1046 16 18 16C16.8954 16 16 16.8954 16 18C16 19.1046 16.8954 20 18 20Z" fill="#555555"/>
<path fill-rule="evenodd" clip-rule="evenodd" d="M28 31C26.1362 31 24.5701 29.7252 24.126 28H16V26H24.126C24.5701 24.2748 26.1362 23 28 23C30.2091 23 32 24.7909 32 27C32 29.2091 30.2091 31 28 31ZM28 29C29.1046 29 30 28.1046 30 27C30 25.8954 29.1046 25 28 25C26.8954 25 26 25.8954 26 27C26 28.1046 26.8954 29 28 29Z" fill="#555555"/>
</svg>
