<svg width="36" height="36" viewBox="0 0 36 36" fill="none" xmlns="http://www.w3.org/2000/svg">
<path d="M9 25.5V28.5M15 25.5V31.5M21 25.5V28.5M27 25.5V31.5" stroke="#555555" stroke-width="3" stroke-linecap="round" stroke-linejoin="round"/>
<path d="M31.5 13.5C31.5 15.0913 30.8679 16.6174 29.7426 17.7426C28.6174 18.8678 27.0913 19.5 25.5 19.5H9.00001C8.33633 19.5049 7.67977 19.3631 7.07737 19.0845C6.47498 18.8059 5.94167 18.3975 5.51566 17.8885C5.08965 17.3796 4.78149 16.7827 4.61326 16.1407C4.44504 15.4987 4.42091 14.8274 4.54261 14.175C4.66431 13.5225 4.92882 12.9051 5.31719 12.3669C5.70556 11.8287 6.20818 11.383 6.78902 11.0619C7.36986 10.7408 8.01454 10.5521 8.67686 10.5094C9.33918 10.4667 10.0027 10.5711 10.62 10.815C10.8627 9.35138 11.5341 7.99264 12.5491 6.91064C13.5642 5.82864 14.8773 5.07199 16.3224 4.73639C17.7676 4.4008 19.2798 4.50135 20.6678 5.02531C22.0557 5.54927 23.2571 6.47312 24.12 7.67998C24.5717 7.5677 25.0347 7.50731 25.5 7.49998C27.0913 7.49998 28.6174 8.13212 29.7426 9.25734C30.8679 10.3826 31.5 11.9087 31.5 13.5Z" stroke="#555555" stroke-width="3" stroke-linecap="round" stroke-linejoin="round"/>
</svg>
