<svg width="45" height="45" viewBox="0 0 45 45" fill="none" xmlns="http://www.w3.org/2000/svg">
<rect x="0.5" y="0.5" width="44" height="44" rx="22" fill="white"/>
<rect x="0.5" y="0.5" width="44" height="44" rx="22" stroke="#555555"/>
<path d="M28.2664 34.6155H17.7476L15.8773 14.4429H30.1367L28.2664 34.6155Z" fill="#E2B97F"/>
<path d="M28.2664 34.8734H17.7476C17.614 34.8734 17.5039 34.7727 17.4898 34.6391L15.6195 14.4688C15.6125 14.3961 15.6359 14.3258 15.6851 14.2719C15.7344 14.218 15.8023 14.1875 15.875 14.1875H30.1344C30.207 14.1875 30.275 14.218 30.3242 14.2719C30.3734 14.3258 30.3969 14.3961 30.3898 14.4688L28.5195 34.6391C28.5125 34.7703 28.4 34.8734 28.2664 34.8734ZM17.982 34.3578H28.032L29.8554 14.7031H16.1609L17.982 34.3578Z" fill="#1C1C1C"/>
<path d="M28.8313 28.5358H17.1829L16.3743 19.8101H29.6399L28.8313 28.5358Z" fill="#FFC861"/>
<path d="M28.8313 28.7938H17.1829C17.0493 28.7938 16.9391 28.693 16.9251 28.5594L16.1165 19.8313C16.1094 19.7586 16.1329 19.6883 16.1821 19.6344C16.2313 19.5805 16.2993 19.55 16.3719 19.55H29.6376C29.7102 19.55 29.7782 19.5805 29.8274 19.6344C29.8766 19.6883 29.9001 19.7586 29.893 19.8313L29.0844 28.5594C29.0751 28.693 28.9649 28.7938 28.8313 28.7938ZM17.4196 28.2782H28.5969L29.3586 20.0657H16.6579L17.4196 28.2782Z" fill="#1C1C1C"/>
<path d="M20.429 24.1741C20.429 24.5118 20.4955 24.8461 20.6247 25.158C20.7539 25.47 20.9433 25.7534 21.182 25.9922C21.4208 26.2309 21.7042 26.4203 22.0161 26.5495C22.3281 26.6787 22.6624 26.7452 23 26.7452C23.3377 26.7452 23.672 26.6787 23.984 26.5495C24.2959 26.4203 24.5793 26.2309 24.8181 25.9922C25.0568 25.7534 25.2462 25.47 25.3754 25.158C25.5046 24.8461 25.5711 24.5118 25.5711 24.1741C25.5711 23.8365 25.5046 23.5021 25.3754 23.1902C25.2462 22.8783 25.0568 22.5948 24.8181 22.3561C24.5793 22.1173 24.2959 21.928 23.984 21.7987C23.672 21.6695 23.3377 21.603 23 21.603C22.6624 21.603 22.3281 21.6695 22.0161 21.7987C21.7042 21.928 21.4208 22.1173 21.182 22.3561C20.9433 22.5948 20.7539 22.8783 20.6247 23.1902C20.4955 23.5021 20.429 23.8365 20.429 24.1741Z" fill="#FF8450"/>
<path d="M23 27.003C21.4391 27.003 20.1711 25.7327 20.1711 24.1741C20.1711 22.6132 21.4415 21.3452 23 21.3452C24.561 21.3452 25.829 22.6155 25.829 24.1741C25.829 25.7327 24.561 27.003 23 27.003ZM23 21.8585C21.725 21.8585 20.6868 22.8968 20.6868 24.1718C20.6868 25.4468 21.725 26.4851 23 26.4851C24.275 26.4851 25.3133 25.4468 25.3133 24.1718C25.3133 22.8968 24.2774 21.8585 23 21.8585Z" fill="#1C1C1C"/>
<path d="M31.8125 14.879H14.2015L15.6336 11.675H30.3804L31.8125 14.879Z" fill="#E2B97F"/>
<path d="M31.8125 15.1367H14.2016C14.1149 15.1367 14.0328 15.0921 13.986 15.0195C13.9391 14.9468 13.9321 14.8531 13.9672 14.7734L15.3992 11.5671C15.4414 11.4734 15.5328 11.4148 15.6336 11.4148H30.3805C30.4813 11.4148 30.575 11.4757 30.6149 11.5671L32.0469 14.7757C32.0821 14.8554 32.075 14.9468 32.0282 15.0218C31.9813 15.0945 31.8992 15.1367 31.8125 15.1367ZM14.6 14.621H31.4141L30.2141 11.9328H15.8L14.6 14.621Z" fill="#1C1C1C"/>
</svg>
