<svg width="45" height="45" viewBox="0 0 45 45" fill="none" xmlns="http://www.w3.org/2000/svg">
<rect x="0.5" y="0.5" width="44" height="44" rx="22" fill="white"/>
<rect x="0.5" y="0.5" width="44" height="44" rx="22" stroke="#555555"/>
<path fill-rule="evenodd" clip-rule="evenodd" d="M29.3136 13.3635L21.488 23.3583L18.9256 20.4282C18.8439 20.3337 18.7444 20.2563 18.6327 20.2005C18.521 20.1446 18.3994 20.1114 18.2749 20.1027C18.1503 20.094 18.0253 20.1099 17.9069 20.1497C17.7886 20.1895 17.6792 20.2523 17.5852 20.3344C17.4912 20.4166 17.4143 20.5165 17.3591 20.6285C17.3038 20.7404 17.2712 20.8622 17.2631 20.9868C17.255 21.1114 17.2717 21.2364 17.3121 21.3545C17.3525 21.4727 17.4158 21.5817 17.4984 21.6753L20.439 25.0375C20.5767 25.1949 20.7474 25.32 20.9391 25.4038C21.1307 25.4876 21.3384 25.5281 21.5475 25.5224C21.7566 25.5167 21.9618 25.4649 22.1486 25.3708C22.3354 25.2767 22.4991 25.1425 22.628 24.9778L30.8061 14.532C30.8828 14.434 30.9395 14.3218 30.9729 14.2019C31.0062 14.082 31.0157 13.9567 31.0006 13.8332C30.9856 13.7096 30.9463 13.5902 30.8852 13.4819C30.824 13.3735 30.7421 13.2782 30.6441 13.2015C30.5461 13.1248 30.4339 13.0681 30.314 13.0347C30.1941 13.0013 30.0688 12.9919 29.9452 13.007C29.8217 13.022 29.7023 13.0612 29.5939 13.1224C29.4856 13.1836 29.3903 13.2655 29.3136 13.3635ZM29.1098 21.5255C28.8585 21.5255 28.6175 21.6254 28.4397 21.8031C28.262 21.9808 28.1622 22.2218 28.1622 22.4732V28.232C28.1622 28.6669 28.1423 28.7721 28.0845 28.8801C28.0516 28.944 27.9996 28.996 27.9357 29.0289C27.8286 29.0858 27.7225 29.1066 27.2875 29.1066H15.7699C15.335 29.1066 15.2298 29.0858 15.1218 29.0289C15.0578 28.9961 15.0058 28.944 14.973 28.8801C14.9161 28.7731 14.8953 28.6669 14.8953 28.232V16.3135C14.8953 16.1879 14.9452 16.0673 15.0341 15.9785C15.1229 15.8896 15.2434 15.8397 15.3691 15.8397L23.424 15.8435C23.6753 15.8435 23.9164 15.7437 24.0941 15.5659C24.2718 15.3882 24.3716 15.1472 24.3716 14.8959C24.3716 14.6445 24.2718 14.4035 24.0941 14.2258C23.9164 14.0481 23.6753 13.9482 23.424 13.9482L15.3691 13.9444C14.7408 13.9444 14.1382 14.194 13.6939 14.6383C13.2496 15.0826 13 15.6852 13 16.3135V28.232C13 28.9522 13.0777 29.3549 13.3023 29.7738C13.5146 30.1708 13.8311 30.4873 14.2281 30.6996C14.647 30.9242 15.0488 31.0019 15.7699 31.0019H27.2875C28.0077 31.0019 28.4105 30.9242 28.8293 30.6996C29.2273 30.4873 29.5438 30.1708 29.7561 29.7738C29.9798 29.3549 30.0575 28.9531 30.0575 28.232V22.4732C30.0575 22.2218 29.9576 21.9808 29.7799 21.8031C29.6022 21.6254 29.3612 21.5255 29.1098 21.5255Z" fill="#555555"/>
</svg>
