<svg width="45" height="45" viewBox="0 0 45 45" fill="none" xmlns="http://www.w3.org/2000/svg">
<rect x="0.5" y="0.5" width="44" height="44" rx="22" stroke="white"/>
<path d="M28.2339 15.0083L14.5745 16.8912C14.5745 16.8912 14 16.9551 14 17.5614V27.9656C14 27.9656 14 28.5719 14.6064 28.6677L28.2658 30.5187C29.0317 30.5826 28.9998 29.8804 28.9998 29.8804V15.6785C28.9998 15.6785 28.9998 14.9125 28.2339 15.0083ZM19.9361 22.0933H15.3404V18.1359L19.9361 17.4976C19.9042 17.4976 19.9042 22.0933 19.9361 22.0933ZM21.2446 17.338L27.6594 16.4763V22.1252H21.2446V17.338ZM15.3404 23.4337H19.9042V27.9975L15.3085 27.3592C15.3085 27.3592 15.3085 23.4337 15.3404 23.4337ZM21.2446 23.4337H27.6594V29.0826L21.2446 28.189V23.4337Z" fill="white"/>
</svg>
